<?xml version="1.0" encoding="UTF-8"?>
<svg viewBox="0 0 84 84" version="1.1" xmlns="http://www.w3.org/2000/svg" xmlns:xlink="http://www.w3.org/1999/xlink">
    <g id="Page-1" stroke="none" stroke-width="1" fill="none" fill-rule="evenodd">
        <g id="noun_Heart_1176163" fill-rule="nonzero" fill="#000000">
            <path d="M42,84 C18.8040405,84 0,65.1959595 0,42 C0,18.8040405 18.8040405,0 42,0 C65.1959595,0 84,18.8040405 84,42 C84,65.1959595 65.1959595,84 42,84 Z M39.0507206,25.6431312 C33.9910525,20.5127844 25.7848963,20.515637 20.7283701,25.6427982 L20.3204154,26.0564516 C14.6004768,31.8562923 14.6023487,41.2615904 20.3170259,47.0560962 L38.3320563,65.3227794 C40.0907994,67.1060906 42.9336068,67.1148903 44.7010285,65.3227794 L62.716059,47.0560962 C68.4341258,41.2581534 68.4229601,31.8465096 62.7126694,26.0564516 L62.3047148,25.6427982 C57.2452281,20.5126352 49.0444017,20.510382 43.9823643,25.6431312 L43.1088701,26.5288273 C42.2294518,27.4205303 40.8067141,27.4236543 39.9242147,26.5288273 L39.0507206,25.6431312 Z" id="Shape"></path>
        </g>
    </g>
</svg>
