<svg fill="#fff" xmlns="http://www.w3.org/2000/svg" xmlns:xlink="http://www.w3.org/1999/xlink" xml:space="preserve" version="1.1" style="shape-rendering:geometricPrecision;text-rendering:geometricPrecision;image-rendering:optimizeQuality;" viewBox="0 0 346 346" fill-rule="evenodd" clip-rule="evenodd"><defs><style type="text/css">
    .fil0 {fill:#fff;fill-rule:nonzero}
  </style></defs><g><path class="fil0" d="M308 38c-51,-51 -133,-51 -184,0 -45,44 -50,113 -18,163l-98 99c-11,10 -11,28 0,38 10,11 28,11 38,0l99 -98c50,33 119,27 163,-17 51,-51 51,-134 0,-185zm-21 21c40,40 40,103 0,143 -39,39 -103,39 -142,0 -40,-40 -40,-104 0,-143 39,-39 103,-39 142,0z"></path><path class="fil0" d="M302 121c-3,-19 -12,-37 -26,-51 -13,-14 -31,-23 -51,-26l-2 20c15,2 29,9 40,20 11,10 18,24 19,40l20 -3z"></path></g></svg>
